<svg width="143" height="32" viewBox="0 0 143 32" xmlns="http://www.w3.org/2000/svg"><title>0C2A72BE-13B6-4D72-923C-3F5ED13423A9</title><g fill="#FFF" fill-rule="evenodd"><path d="M66.362 17.152c0-2.072.672-3.248 3.248-3.248 2.604 0 3.248 1.176 3.248 3.248v7.952c0 .728.168.896.896.896h.28c.728 0 .896-.168.896-.896v-7.952c0-2.072.644-3.248 3.276-3.248 2.576 0 3.22 1.176 3.22 3.248v7.952c0 .728.168.896.896.896h.308c.728 0 .896-.168.896-.896v-7.952c0-3.248-1.428-5.236-5.32-5.236-2.352 0-3.668.896-4.312 2.324-.588-1.428-1.904-2.324-4.284-2.324-3.808 0-5.348 2.016-5.348 5.236v7.952c0 .728.168.896.896.896h.308c.728 0 .896-.168.896-.896v-7.952zM96.714 20.4c0 2.52-.812 3.892-4.004 3.892-3.22 0-4.06-1.372-4.06-3.892v-2.604c0-2.548.84-3.892 4.06-3.892 3.192 0 4.004 1.344 4.004 3.892V20.4zm-4.004 5.88c4.396 0 6.104-2.24 6.104-5.88v-2.604c0-3.696-1.624-5.88-6.104-5.88-4.424 0-6.16 2.24-6.16 5.88V20.4c0 3.696 1.652 5.88 6.16 5.88zm11.228-9.128c0-2.072.756-3.248 3.752-3.248 2.996 0 3.696 1.176 3.696 3.248v7.952c0 .728.168.896.896.896h.336c.728 0 .896-.168.896-.896v-7.952c0-3.248-1.54-5.236-5.824-5.236-4.228 0-5.852 2.016-5.852 5.236v7.952c0 .728.168.896.896.896h.308c.728 0 .896-.168.896-.896v-7.952zm24.248.364c0-3.752-2.072-5.6-5.74-5.6-4.48 0-5.908 2.52-5.908 5.908v2.604c0 4.2 2.156 5.852 6.468 5.852 1.68 0 2.968-.28 3.836-.532.784-.224.868-.476.868-1.008v-.252c0-.7-.196-.924-.896-.728-.616.168-2.128.532-3.808.532-3.052 0-4.368-.98-4.368-3.556v-.84h8.456c.728 0 .924-.14 1.008-.868.056-.364.084-.952.084-1.512zm-9.548-.308c0-2.436 1.4-3.416 3.78-3.416 2.324 0 3.78.98 3.78 3.416v.924h-7.56v-.924zm13.384-4.088c-.196-.728-.448-.924-1.204-.924h-.224c-.756 0-.896.196-.7.924l2.66 9.744c.532 1.988 1.12 3.276 3.136 3.276.56 0 1.064-.112 1.4-.308-.756 2.52-1.68 4.004-3.864 4.228-.672.056-.868.168-.728.84l.056.252c.14.672.364.84 1.008.784 2.996-.196 4.732-2.352 5.628-5.936l3.22-12.88c.168-.728.028-.924-.728-.924h-.252c-.756 0-1.008.196-1.176.924l-2.324 9.66c-.308 1.26-.784 1.54-1.568 1.54-.924 0-1.344-.252-1.708-1.54l-2.632-9.66zM63.268 6.674l-2.824-.001a.558.558 0 0 1-.557-.558V3.257c.001-.308.25-.558.559-.558l2.823.001c.308 0 .558.25.558.558l-.001 2.859c0 .307-.25.557-.558.557M59.505 2.7l-1.917-.001a.379.379 0 0 1-.379-.379V.38c.001-.21.17-.379.38-.379h1.917c.21 0 .379.17.379.38V2.32c0 .21-.17.379-.38.379M10.96 13.84c0 2.297-.587 3.541-3.68 3.541H2.516v-5.927c0-.822.306-1.128 1.128-1.128h3.634c2.33 0 3.68.575 3.68 3.514zM7.28 7.948H3.172C.979 7.948 0 8.926 0 11.12v14.094c0 .848.272 1.12 1.12 1.12h.277c.848 0 1.12-.272 1.12-1.12v-5.483H7.28c4.228 0 6.197-1.872 6.197-5.892 0-4.02-1.969-5.892-6.197-5.892zM22.334 20v1.933c0 1.575-.584 2.486-3.569 2.486-1.972 0-2.93-.713-2.93-2.181 0-1.61.961-2.238 3.43-2.238h3.069zm-3.569-8.01c-1.627 0-2.647.204-3.034.281-.685.15-.971.337-.971 1.116v.222c0 .305.045.516.142.665.113.174.294.262.54.262.12 0 .26-.02.425-.062.391-.098 1.641-.3 3.009-.3 2.456 0 3.458.68 3.458 2.348v1.488h-3.097c-3.982 0-5.837 1.344-5.837 4.228 0 2.797 1.915 4.338 5.393 4.338 4.132 0 5.975-1.407 5.975-4.56v-5.494c0-3.05-1.964-4.532-6.003-4.532zM38.387 12.647c-.175-.22-.507-.251-.84-.251h-.249c-.828 0-1.153.256-1.337 1.05l-2.303 9.572c-.287 1.176-.69 1.391-1.382 1.391-.846 0-1.185-.202-1.522-1.395l-2.608-9.572c-.216-.802-.534-1.046-1.363-1.046h-.222c-.335 0-.668.03-.839.254-.171.223-.113.557-.025.884l2.636 9.655c.494 1.847 1.082 3.377 3.277 3.377.41 0 .79-.057 1.105-.163-.666 2.094-1.344 3.018-3.342 3.223-.405.034-.669.092-.816.289-.152.204-.117.496-.063.758l.055.247c.12.572.323.927.965.927.068 0 .14-.003.218-.01 2.984-.195 4.582-1.801 5.518-5.544l3.191-12.765c.076-.328.121-.661-.054-.881M54.846 7.951h-.54c-1.717 0-2.355.284-2.355 1.847v3.659l-.001.023v.802c0 .028-.003.054-.003.082v5.113c0 .624-.12 1.121-.368 1.508-.468.72-1.395 1.048-2.877 1.05-1.482-.002-2.409-.33-2.877-1.05-.249-.386-.37-.883-.37-1.508v-5.113l-.001-.082v-.802l-.002-.023V9.798c0-1.563-.638-1.847-2.355-1.847h-.54c-1.717 0-2.355.284-2.355 1.847v9.679c0 1.557.351 2.875 1.03 3.938 1.31 2.059 3.848 3.155 7.456 3.155h.027c3.608 0 6.146-1.096 7.456-3.155.68-1.063 1.03-2.381 1.03-3.938V9.798c0-1.563-.638-1.847-2.355-1.847"/><path d="M59.134 12.022L57.2 12.02V9.798c0-1.563-.638-1.847-2.355-1.847h-.263v-.53a.75.75 0 0 1 .75-.75h3.802c.415 0 .75.337.75.752v3.848c0 .415-.337.75-.751.75"/></g></svg>